<mxfile host="app.diagrams.net" agent="Mozilla/5.0 (Windows NT 10.0; Win64; x64) AppleWebKit/537.36 (KHTML, like Gecko) Chrome/138.0.0.0 Safari/537.36" version="28.0.7">
  <diagram name="Page-1" id="9AK3ydDfnLAqTHKKUPR3">
    <mxGraphModel dx="1426" dy="751" grid="1" gridSize="10" guides="1" tooltips="1" connect="1" arrows="1" fold="1" page="1" pageScale="1" pageWidth="850" pageHeight="1100" math="0" shadow="0">
      <root>
        <mxCell id="0" />
        <mxCell id="1" parent="0" />
        <mxCell id="oNQyIuKWh4cEQP4hUI-t-1" value="&lt;pre style=&quot;margin-top: 0; position: relative;&quot;&gt;&lt;code class=&quot;hljs&quot;&gt;&lt;br&gt;&lt;/code&gt;&lt;/pre&gt;&lt;pre style=&quot;margin-top: 0; position: relative;&quot;&gt;&lt;code class=&quot;hljs&quot;&gt;Online Men&lt;/code&gt;&lt;/pre&gt;&lt;pre style=&quot;margin-top: 0; position: relative;&quot;&gt;&lt;code class=&quot;hljs&quot;&gt; Clothing Store&lt;br&gt;&lt;/code&gt;&lt;/pre&gt;&lt;br&gt;&lt;h4 lang=&quot;fa&quot; dir=&quot;rtl&quot;&gt;&lt;/h4&gt;" style="rhombus;whiteSpace=wrap;html=1;" vertex="1" parent="1">
          <mxGeometry x="340" y="50" width="150" height="140" as="geometry" />
        </mxCell>
        <mxCell id="oNQyIuKWh4cEQP4hUI-t-4" value="Users&lt;div&gt;&lt;br&gt;&lt;/div&gt;" style="shape=umlActor;verticalLabelPosition=bottom;verticalAlign=top;html=1;outlineConnect=0;" vertex="1" parent="1">
          <mxGeometry x="40" y="197.5" width="30" height="60" as="geometry" />
        </mxCell>
        <mxCell id="oNQyIuKWh4cEQP4hUI-t-5" value="Admin&lt;div&gt;&lt;br&gt;&lt;/div&gt;" style="shape=umlActor;verticalLabelPosition=bottom;verticalAlign=top;html=1;outlineConnect=0;" vertex="1" parent="1">
          <mxGeometry x="40" y="345" width="30" height="60" as="geometry" />
        </mxCell>
        <mxCell id="oNQyIuKWh4cEQP4hUI-t-12" value="SMS Provider" style="rounded=0;whiteSpace=wrap;html=1;" vertex="1" parent="1">
          <mxGeometry x="710" y="190" width="90" height="60" as="geometry" />
        </mxCell>
        <mxCell id="oNQyIuKWh4cEQP4hUI-t-13" value="Bank Gateway / Payment" style="rounded=0;whiteSpace=wrap;html=1;" vertex="1" parent="1">
          <mxGeometry x="710" y="290" width="90" height="60" as="geometry" />
        </mxCell>
        <mxCell id="oNQyIuKWh4cEQP4hUI-t-15" value="Accounting System" style="rounded=0;whiteSpace=wrap;html=1;" vertex="1" parent="1">
          <mxGeometry x="710" y="500" width="90" height="60" as="geometry" />
        </mxCell>
        <mxCell id="oNQyIuKWh4cEQP4hUI-t-22" value="" style="endArrow=classic;html=1;rounded=0;entryX=0.06;entryY=0.579;entryDx=0;entryDy=0;entryPerimeter=0;" edge="1" parent="1" source="oNQyIuKWh4cEQP4hUI-t-24" target="oNQyIuKWh4cEQP4hUI-t-1">
          <mxGeometry width="50" height="50" relative="1" as="geometry">
            <mxPoint x="220" y="160" as="sourcePoint" />
            <mxPoint x="370" y="270" as="targetPoint" />
            <Array as="points">
              <mxPoint x="349" y="235" />
            </Array>
          </mxGeometry>
        </mxCell>
        <mxCell id="oNQyIuKWh4cEQP4hUI-t-23" value="" style="endArrow=classic;html=1;rounded=0;exitX=0.5;exitY=0.625;exitDx=0;exitDy=0;exitPerimeter=0;" edge="1" parent="1" source="oNQyIuKWh4cEQP4hUI-t-4" target="oNQyIuKWh4cEQP4hUI-t-24">
          <mxGeometry width="50" height="50" relative="1" as="geometry">
            <mxPoint x="120" y="230" as="sourcePoint" />
            <mxPoint x="372" y="270" as="targetPoint" />
          </mxGeometry>
        </mxCell>
        <mxCell id="oNQyIuKWh4cEQP4hUI-t-24" value="Register/Login, Browse/Order" style="text;html=1;align=center;verticalAlign=middle;whiteSpace=wrap;rounded=0;rotation=0;" vertex="1" parent="1">
          <mxGeometry x="195" y="220" width="90" height="30" as="geometry" />
        </mxCell>
        <mxCell id="oNQyIuKWh4cEQP4hUI-t-26" value="" style="endArrow=classic;html=1;rounded=0;exitX=1;exitY=0.25;exitDx=0;exitDy=0;entryX=0;entryY=1;entryDx=0;entryDy=0;" edge="1" parent="1" source="oNQyIuKWh4cEQP4hUI-t-28" target="oNQyIuKWh4cEQP4hUI-t-1">
          <mxGeometry width="50" height="50" relative="1" as="geometry">
            <mxPoint x="280" y="370" as="sourcePoint" />
            <mxPoint x="290" y="280" as="targetPoint" />
            <Array as="points">
              <mxPoint x="378" y="368" />
            </Array>
          </mxGeometry>
        </mxCell>
        <mxCell id="oNQyIuKWh4cEQP4hUI-t-27" value="" style="endArrow=classic;html=1;rounded=0;exitX=0.5;exitY=0.5;exitDx=0;exitDy=0;exitPerimeter=0;" edge="1" parent="1" source="oNQyIuKWh4cEQP4hUI-t-5" target="oNQyIuKWh4cEQP4hUI-t-28">
          <mxGeometry width="50" height="50" relative="1" as="geometry">
            <mxPoint x="195" y="290" as="sourcePoint" />
            <mxPoint x="343" y="297" as="targetPoint" />
          </mxGeometry>
        </mxCell>
        <mxCell id="oNQyIuKWh4cEQP4hUI-t-28" value="Manage , Products" style="text;html=1;align=center;verticalAlign=middle;whiteSpace=wrap;rounded=0;rotation=0;" vertex="1" parent="1">
          <mxGeometry x="210" y="360" width="60" height="30" as="geometry" />
        </mxCell>
        <mxCell id="oNQyIuKWh4cEQP4hUI-t-39" value="" style="endArrow=classic;html=1;rounded=0;exitX=0;exitY=0.5;exitDx=0;exitDy=0;entryX=0.94;entryY=0.579;entryDx=0;entryDy=0;entryPerimeter=0;" edge="1" parent="1" source="oNQyIuKWh4cEQP4hUI-t-40">
          <mxGeometry width="50" height="50" relative="1" as="geometry">
            <mxPoint x="519" y="205" as="sourcePoint" />
            <mxPoint x="490" y="121.05999999999995" as="targetPoint" />
            <Array as="points">
              <mxPoint x="490" y="230" />
            </Array>
          </mxGeometry>
        </mxCell>
        <mxCell id="oNQyIuKWh4cEQP4hUI-t-41" value="" style="endArrow=classic;html=1;rounded=0;exitX=0.044;exitY=0.633;exitDx=0;exitDy=0;exitPerimeter=0;" edge="1" parent="1" source="oNQyIuKWh4cEQP4hUI-t-12" target="oNQyIuKWh4cEQP4hUI-t-40">
          <mxGeometry width="50" height="50" relative="1" as="geometry">
            <mxPoint x="633" y="188" as="sourcePoint" />
            <mxPoint x="473" y="266" as="targetPoint" />
          </mxGeometry>
        </mxCell>
        <mxCell id="oNQyIuKWh4cEQP4hUI-t-40" value="Send OTP, notifications" style="text;html=1;align=center;verticalAlign=middle;whiteSpace=wrap;rounded=0;" vertex="1" parent="1">
          <mxGeometry x="519" y="210" width="100" height="40" as="geometry" />
        </mxCell>
        <mxCell id="oNQyIuKWh4cEQP4hUI-t-42" value="" style="endArrow=classic;html=1;rounded=0;exitX=0;exitY=0.5;exitDx=0;exitDy=0;entryX=1;entryY=1;entryDx=0;entryDy=0;" edge="1" parent="1" source="oNQyIuKWh4cEQP4hUI-t-44" target="oNQyIuKWh4cEQP4hUI-t-1">
          <mxGeometry width="50" height="50" relative="1" as="geometry">
            <mxPoint x="400" y="410" as="sourcePoint" />
            <mxPoint x="450" y="360" as="targetPoint" />
            <Array as="points">
              <mxPoint x="453" y="315" />
            </Array>
          </mxGeometry>
        </mxCell>
        <mxCell id="oNQyIuKWh4cEQP4hUI-t-43" value="" style="endArrow=classic;html=1;rounded=0;exitX=0;exitY=0.5;exitDx=0;exitDy=0;" edge="1" parent="1" source="oNQyIuKWh4cEQP4hUI-t-13">
          <mxGeometry width="50" height="50" relative="1" as="geometry">
            <mxPoint x="710" y="300" as="sourcePoint" />
            <mxPoint x="590" y="320" as="targetPoint" />
            <Array as="points" />
          </mxGeometry>
        </mxCell>
        <mxCell id="oNQyIuKWh4cEQP4hUI-t-44" value="Payment confirmation" style="text;html=1;align=center;verticalAlign=middle;whiteSpace=wrap;rounded=0;" vertex="1" parent="1">
          <mxGeometry x="519" y="290" width="80" height="50" as="geometry" />
        </mxCell>
        <mxCell id="oNQyIuKWh4cEQP4hUI-t-46" value="" style="endArrow=classic;html=1;rounded=0;entryX=0.633;entryY=0.907;entryDx=0;entryDy=0;entryPerimeter=0;" edge="1" parent="1" source="oNQyIuKWh4cEQP4hUI-t-49" target="oNQyIuKWh4cEQP4hUI-t-1">
          <mxGeometry width="50" height="50" relative="1" as="geometry">
            <mxPoint x="400" y="410" as="sourcePoint" />
            <mxPoint x="450" y="360" as="targetPoint" />
            <Array as="points">
              <mxPoint x="435" y="410" />
            </Array>
          </mxGeometry>
        </mxCell>
        <mxCell id="oNQyIuKWh4cEQP4hUI-t-50" value="" style="endArrow=classic;html=1;rounded=0;exitX=0.25;exitY=0;exitDx=0;exitDy=0;entryX=1;entryY=0.5;entryDx=0;entryDy=0;" edge="1" parent="1" source="oNQyIuKWh4cEQP4hUI-t-15" target="oNQyIuKWh4cEQP4hUI-t-49">
          <mxGeometry width="50" height="50" relative="1" as="geometry">
            <mxPoint x="570" y="455" as="sourcePoint" />
            <mxPoint x="733" y="400" as="targetPoint" />
            <Array as="points">
              <mxPoint x="733" y="410" />
            </Array>
          </mxGeometry>
        </mxCell>
        <mxCell id="oNQyIuKWh4cEQP4hUI-t-49" value="Get account status /&amp;nbsp;&lt;div&gt;Receive payment confirmation&lt;/div&gt;" style="text;html=1;align=center;verticalAlign=middle;whiteSpace=wrap;rounded=0;" vertex="1" parent="1">
          <mxGeometry x="470" y="380" width="150" height="60" as="geometry" />
        </mxCell>
        <mxCell id="oNQyIuKWh4cEQP4hUI-t-52" value="" style="endArrow=classic;html=1;rounded=0;exitX=0.5;exitY=1;exitDx=0;exitDy=0;entryX=0;entryY=0.617;entryDx=0;entryDy=0;entryPerimeter=0;" edge="1" parent="1" source="oNQyIuKWh4cEQP4hUI-t-54" target="oNQyIuKWh4cEQP4hUI-t-15">
          <mxGeometry width="50" height="50" relative="1" as="geometry">
            <mxPoint x="400" y="410" as="sourcePoint" />
            <mxPoint x="706" y="520" as="targetPoint" />
            <Array as="points">
              <mxPoint x="403" y="537" />
            </Array>
          </mxGeometry>
        </mxCell>
        <mxCell id="oNQyIuKWh4cEQP4hUI-t-55" value="" style="endArrow=classic;html=1;rounded=0;exitX=0.42;exitY=0.95;exitDx=0;exitDy=0;exitPerimeter=0;" edge="1" parent="1" source="oNQyIuKWh4cEQP4hUI-t-1" target="oNQyIuKWh4cEQP4hUI-t-54">
          <mxGeometry width="50" height="50" relative="1" as="geometry">
            <mxPoint x="415" y="370" as="sourcePoint" />
            <mxPoint x="460" y="490" as="targetPoint" />
          </mxGeometry>
        </mxCell>
        <mxCell id="oNQyIuKWh4cEQP4hUI-t-54" value="Send invoices &amp;amp; payments via API&lt;div&gt;&lt;br/&gt;&lt;/div&gt;" style="text;html=1;align=center;verticalAlign=middle;whiteSpace=wrap;rounded=0;" vertex="1" parent="1">
          <mxGeometry x="315" y="440" width="175" height="60" as="geometry" />
        </mxCell>
        <mxCell id="oNQyIuKWh4cEQP4hUI-t-59" value="" style="endArrow=none;dashed=1;html=1;dashPattern=1 3;strokeWidth=4;rounded=0;fillColor=#a20025;strokeColor=#6F0000;startSize=13;sourcePerimeterSpacing=1;" edge="1" parent="1">
          <mxGeometry width="50" height="50" relative="1" as="geometry">
            <mxPoint x="160" y="650" as="sourcePoint" />
            <mxPoint x="160" y="30" as="targetPoint" />
          </mxGeometry>
        </mxCell>
        <mxCell id="oNQyIuKWh4cEQP4hUI-t-64" value="" style="endArrow=none;dashed=1;html=1;dashPattern=1 3;strokeWidth=4;rounded=0;fillColor=#a20025;strokeColor=#6F0000;startSize=13;sourcePerimeterSpacing=1;" edge="1" parent="1">
          <mxGeometry width="50" height="50" relative="1" as="geometry">
            <mxPoint x="650" y="640" as="sourcePoint" />
            <mxPoint x="650" y="20" as="targetPoint" />
          </mxGeometry>
        </mxCell>
      </root>
    </mxGraphModel>
  </diagram>
</mxfile>
